<?xml version="1.0" encoding="UTF-8"?><svg id="Layer_2" xmlns="http://www.w3.org/2000/svg" xmlns:xlink="http://www.w3.org/1999/xlink" viewBox="0 0 966.8 426.53"><defs><style>.cls-1{stroke:#f2cd00;stroke-miterlimit:10;stroke-width:.5px;}.cls-1,.cls-2{fill:#fff;}.cls-3{clip-path:url(#clippath);}</style><clipPath id="clippath"><polygon class="cls-2" points="497 112.15 616.51 201.24 497 0 497 0 377.48 201.24 497 112.15"/></clipPath></defs><g id="a"><path class="cls-2" d="m3.52,193.11v-47.65c13.81,7.31,30.32,12.72,46.02,14.08,5.41.54,10.56.54,15.43.27,15.97-1.08,24.9-5.41,24.9-13.54,0-10.29-12.18-15.43-36-24.36C21.12,109.46,0,95.93,0,60.19S29.51,1.18,73.9,1.18c19.49,0,38.98,3.79,51.98,9.2v45.75c-11.64-7.31-30.05-12.18-47.92-12.18s-29.24,6.23-29.24,15.97c0,9.2,11.37,15.43,34.11,24.64,32.76,12.99,55.23,26.8,55.23,61.45s-27.07,57.66-75.53,57.66c-22.2,0-44.4-4.33-59.02-10.56Z"/><path class="cls-2" d="m223.24,112.71l-12.72-10.56v99.08h-47.11V3.61h1.08l95.03,86.36L354.54,3.61h1.36v197.62h-47.65v-99.08l-12.45,10.56c-12.18,11.64-24.09,23.28-36.27,34.65-12.19-11.37-24.1-23.01-36.28-34.65Z"/><polygon class="cls-2" points="497 112.15 616.51 201.24 497 0 497 0 377.48 201.24 497 112.15"/><g class="cls-3"><polygon class="cls-2" points="497 -13.97 497 105.35 497 211.91 623.83 211.91 623.83 -13.35 497 -13.97"/></g><polygon class="cls-2" points="497 200.98 575.81 200.94 497 144.78 497 144.78 414.35 200.94 497 200.98"/><path class="cls-2" d="m711.14,4.97c46.56,0,78.78,22.47,78.78,66.33,0,28.16-14.35,46.83-35.74,56.31l39.26,72.28h-51.71l-31.4-64.16h-21.66v64.16h-48.46V4.97h70.93Zm-22.47,41.69v49.54h24.91c14.89,0,26.26-7.04,26.26-24.91s-11.64-24.64-26.53-24.64h-24.64Z"/><path class="cls-2" d="m914.82,46.66v153.23h-49.81V46.66h-51.98V4.97h153.77v41.69h-51.98Z"/><path class="cls-1" d="m469.52,379.5c.07-.58.14-1.12.22-1.63.07-.51.21-1.06.43-1.67.42-1.19.57-2.21.46-3.06.05-.72.13-1.52.23-2.38.1-.88.24-1.75.41-2.63.11-1.3.27-2.6.46-3.91.19-1.31.32-2.75.4-4.33-.04-.28.03-.58.21-.89.17-.31.24-.6.21-.88.24-1.46.45-2.88.63-4.26.18-1.38.32-2.79.42-4.23.04-1.86.5-3.28,1.38-4.25l.18-.24-.03-.21c-.14.02-.25,0-.33-.06-.08-.06-.19-.08-.33-.06l-1.47.19c-1.09.42-2.09.73-2.99.92-.9.19-1.92.35-3.04.5l-2.31.3c-1.25.31-2.48.43-3.7.37-1.22-.06-2.48-.14-3.78-.26-1.3-.12-2.5-.5-3.57-1.14-1.08-.64-2.19-1.47-3.32-2.47l-.79-1.18c.25-.31.36-.54.34-.68.1-.29.29-.46.58-.5l2.45.75,2.61.31c.3.11.8.11,1.5.02.67-.37,1.37-.46,2.1-.27.46.23.95.17,1.48-.19.94-.41,1.91-.64,2.91-.7.99-.06,1.97-.22,2.94-.49,2.79-.5,5.73-1.45,8.84-2.85.54-.21.9-.76,1.07-1.64l.18-.24c.08-.44.17-.88.26-1.32s.1-.87.05-1.29c.06-1.72.36-3.26.9-4.61.19-.74.34-1.54.44-2.41.1-.87.39-1.69.86-2.47.12-.15.17-.37.13-.65-.04-.28-.11-.59-.22-.94-.12-.33-.12-.65-.02-.96.28-1.17.51-2.42.7-3.73.18-1.31.4-2.69.64-4.15.19-.74.37-1.55.54-2.43.18-.88.29-1.67.33-2.39-.09-.71-.08-1.21.02-1.51.57-1.07.93-2.18,1.07-3.35.14-1.16.35-2.26.65-3.3.1-.3.13-.63.09-.97s.05-.68.3-1c.72-1.09.95-2.61.7-4.59.07-.58.05-1.29-.06-2.14-.06-.42.08-1.01.42-1.77.47-.78.73-1.56.77-2.35.04-.79.15-1.55.35-2.29.11-1.3.34-2.61.67-3.94.33-1.33.54-2.71.64-4.15.22-.46.31-.9.26-1.32-.05-.42.02-.93.23-1.53.1-1.43.24-2.84.42-4.23.18-1.38.25-2.78.21-4.2.15-1.02.32-1.97.49-2.85.17-.88.34-1.83.49-2.85l-.11-.84c-.07-.56-.46-.8-1.17-.71-.56.07-1.11.28-1.63.64-2.26,1.29-4.63,2.31-7.1,3.06-2.32.87-4.34,1.84-6.05,2.92-1.19.72-2.43,1.38-3.71,1.97-1.28.6-2.53,1.18-3.74,1.77-2.4,1.31-4.77,2.62-7.09,3.92-2.34,1.3-4.6,2.81-6.81,4.51-2.77,1.79-5.35,3.62-7.75,5.5-2.4,1.88-4.73,4.03-6.98,6.47-.67.38-1.37,1.04-2.1,1.99-.49.63-.67,1.45-.54,2.42.09.71-.14,1.17-.68,1.38-1.21,1.73-2.75,3.07-4.62,4.02-1.47.76-2.84.72-4.08-.11-1.11-.85-2.07-1.34-2.86-1.45s-.93-.84-.39-2.2c.42-1.19.8-2.1,1.15-2.72,1.19-1.86,2.49-3.64,3.92-5.32,1.42-1.68,2.82-3.26,4.21-4.72,1.66-1.5,3.41-2.93,5.23-4.31,1.82-1.38,3.64-2.75,5.46-4.13.5-.49,1.18-.8,2.03-.9.56-.07,1.23-.44,2-1.11l2.34-1.8c.61-.79,1.53-1.41,2.76-1.85.7-.09,1.24-.38,1.6-.85.74-.95,1.6-1.42,2.6-1.4.14-.02.61-.22,1.42-.61.26-.17.52-.35.79-.53.26-.17.53-.28.82-.32,1.12-.14,2.11-.52,2.96-1.13.85-.61,1.67-1.18,2.46-1.71,1.19-.72,2.27-1.22,3.24-1.48.94-.41,1.86-.78,2.75-1.11.89-.32,1.64-.81,2.27-1.47,1.03-.84,2.04-1.33,3.03-1.46,1.1-.28,2.15-.74,3.14-1.37.99-.63,2.04-1.01,3.17-1.16.29.11.63-.08,1-.56,1.09-.42,2.11-.81,3.07-1.14.95-.34,1.89-.78,2.82-1.33.26-.18.5-.24.72-.2.22.05.39-.01.51-.17.56-.07.81-.32.76-.74.12-1.3.18-2.49.19-3.56,0-1.07.07-2.18.21-3.35.01-1,0-1.96-.05-2.89-.05-.92,0-1.89.16-2.91.22-.46.27-.92.14-1.41-.14-.48-.1-1.02.11-1.62-.07-.56.11-1.04.56-1.46.44-.42,1.04-.53,1.78-.33.56-.07,1.22.06,1.98.38.74.2,1.34.47,1.82.84.47.37,1.09.72,1.85,1.04.67.78,1.04,1.45,1.11,2,.06.42-.03.93-.23,1.53-.14,1.16-.21,2.31-.2,3.45,0,1.15-.21,2.31-.62,3.51l.14,1.06c.09.7.35,1.02.77.97.66-.37,1.29-.52,1.87-.45s1.19-.15,1.84-.66l5-1.07c.98-.13,2.01-.47,3.08-1.04l3.1-.83c.83-.24,1.82-.3,2.98-.17.44.09.94.1,1.5.02,1.07-.57,2.06-.87,2.99-.92s1.87-.2,2.83-.47c.28-.04.56-.07.84-.11s.57,0,.87.1c.74.19,1.46.24,2.16.15.7-.09,1.4-.18,2.11-.27,1.68-.22,3.54-.24,5.56-.07,1.02.16,2.03.2,3.02.15.99-.05,2,0,3.02.15,1.3.12,2.64.27,4.02.44s2.66.4,3.84.68l5.49,1.01c4.55.99,8.76,2.58,12.61,4.8,2.03,1.31,3.95,2.64,5.76,3.97,1.81,1.34,3.41,2.92,4.79,4.74.42,1.09.86,2.03,1.33,2.82.46.8.89,1.67,1.3,2.61.69,2.06.8,4.04.34,5.95-.28,2.32-.98,4.62-2.11,6.91-.68,1.37-1.44,2.68-2.28,3.93-.84,1.25-1.81,2.52-2.94,3.81l-2.78,3.35c-.37.48-.77.99-1.19,1.55-.43.56-.98,1.02-1.64,1.39l-1.34,1.24-4.15,4.39c-.73.95-1.58,1.56-2.54,1.82-.67.38-1.22.76-1.67,1.18-.45.42-.86.79-1.25,1.13-1.36,1.61-2.83,2.97-4.4,4.1-1.57,1.13-3.08,2.15-4.53,3.05l-3.55,2.39c-.75.81-1.56,1.52-2.41,2.13s-1.81,1.2-2.88,1.76c-1.47.76-2.86,1.62-4.17,2.57-1.31.95-2.62,1.87-3.93,2.75-1.46.91-2.84,1.79-4.15,2.68-1.32.89-2.72,1.64-4.21,2.26-.4.19-.84.43-1.3.7-.47.28-.89.58-1.27.92l-2.82,1.43c-3.17,1.98-6.24,3.66-9.2,5.04-1.35.6-2.7,1.24-4.04,1.91-1.34.67-2.77,1.25-4.27,1.73-1.84,1.24-3.71,2.19-5.63,2.86-1.92.68-3.75,1.41-5.5,2.21-.67.38-1.34.68-2.02.9-.69.23-1.37.46-2.06.69-1.49.62-2.29,1.65-2.39,3.09-.14,1.16-.31,2.29-.53,3.38-.22,1.1-.39,2.23-.53,3.39l-1.01,5.48c-.45,2.06-.77,4-.96,5.8-.19,1.81-.53,3.68-.99,5.59-.21,1.74-.44,3.48-.72,5.23-.28,1.75-.45,3.42-.53,4.99-.19.74-.32,1.47-.36,2.19-.05.72-.02,1.5.09,2.34-.06.72-.04,1.36.03,1.93s.14,1.13.22,1.68c.06.42.07.82.04,1.17-.03.36-.01.75.04,1.17-.49.64-.95.98-1.37,1.03-2.58-.1-4.38-.79-5.41-2.09-.47-.36-.74-.76-.79-1.18-.23-.68-.35-1.31-.35-1.88s.02-1.22.07-1.94l-.38-2.95Zm55.28-131.12c-1.27.16-2.53.32-3.79.49-1.27.16-2.52.4-3.77.7l-8.34,1.72c-.97.27-1.9.5-2.8.68s-1.76.48-2.57.86c-.68.24-1.4.47-2.16.71s-1.53.56-2.34.94c-.81.39-1.25.88-1.31,1.45-.08,1.58-.28,3.11-.59,4.57-.31,1.47-.51,2.99-.59,4.57.06.42.02.72-.1.88-.14,1.16-.33,2.39-.59,3.71-.26,1.32-.46,2.56-.6,3.72-.08,1.58-.28,3.11-.59,4.57-.31,1.47-.51,3-.59,4.58-.71,3.38-1.38,6.74-2.02,10.11-.64,3.37-1.31,6.74-2.02,10.11-.17.88-.24,1.46-.2,1.74.06,1.57-.27,3.46-.98,5.7l-.57,3.92-1.47,8.54c-.36,1.62-.64,3.12-.81,4.49-.18,1.38-.47,2.74-.87,4.08-.14,1.16-.17,2.02-.1,2.58.02.14.1.19.24.18.14-.01.22.05.24.19l.42-.06,10.44-5.41c.52-.35,1-.56,1.42-.61.68-.23,1.36-.49,2.04-.8.68-.3,1.34-.64,2.02-1.01.52-.35,1.03-.6,1.51-.73.48-.13.92-.36,1.3-.7.68-.23,1.26-.44,1.74-.65.47-.2.97-.47,1.5-.83.72.05,1.24-.08,1.55-.41.32-.32.67-.65,1.05-.99.12-.15.39-.26.82-.32.84-.11,1.57-.56,2.18-1.35l2.15-1.57c1.72-1.08,3.44-2.12,5.17-3.13,1.72-1,3.59-2.07,5.59-3.18.98-.13,1.79-.48,2.43-1.06.64-.58,1.35-1.14,2.14-1.67.4-.19.8-.46,1.18-.79.39-.34.77-.67,1.15-1.01,1.46-.9,2.87-1.82,4.25-2.79,1.37-.96,2.87-1.83,4.48-2.61,1.21-.58,2.18-1.35,2.91-2.31,1.14-1.14,2.38-2.02,3.73-2.62.53-.36,1.01-.74,1.46-1.15.44-.42.83-1,1.17-1.75.63-.65,1.3-1.28,2.01-1.87.71-.59,1.39-1.14,2.03-1.65,1.07-.57,1.92-1.18,2.55-1.83.61-.79,1.38-1.5,2.3-2.12.92-.61,1.75-1.33,2.5-2.14.96-.26,1.71-1.14,2.23-2.64.25-.32.43-.52.57-.61.13-.09.25-.28.35-.58.77-.67,1.43-1.33,1.99-1.97s1.15-1.29,1.78-1.94c.51-.49.95-.98,1.31-1.46.37-.47.51-1.06.42-1.77.08-.43.5-1.13,1.23-2.08.42-1.2.83-2.39,1.25-3.59.42-1.19.69-2.37.83-3.53.26-1.32.24-2.53-.04-3.63-.28-1.1-.79-2.25-1.51-3.45-.71-1.05-1.7-2.06-2.96-3.05-2.76-1.49-5.34-2.66-7.73-3.5-3.18-1.45-6.8-2.34-10.84-2.68-3.8-.65-8.2-1.01-13.21-1.08-1.42.05-2.81.04-4.17,0s-2.82.04-4.36.24l-5.05.65Z"/><path class="cls-1" d="m591.74,339.13c-1.58-.08-3.2-.13-4.84-.13-1.64,0-3.09-.42-4.34-1.26-1.74-1.34-3.4-2.84-4.97-4.5-1.57-1.65-2.36-3.62-2.37-5.9-.04-.28-.07-.88-.13-1.81-.04-.92.06-1.54.3-1.86l.26-1.32c.49-1.78.83-2.96,1.04-3.56.21-.6.71-1.73,1.49-3.4,1.92-3.96,4.57-7.73,7.97-11.3,1-1.13,2.14-2.24,3.43-3.34,1.28-1.09,2.72-2.17,4.3-3.23.42-.06.95-.33,1.6-.85,1.07-.57,2.24-.64,3.5-.24,1.27.41,2.29.92,3.09,1.53l1.11,2c.85,3.31.36,6.16-1.47,8.54-1.31,2.02-2.73,3.99-4.27,5.9-1.54,1.91-3.2,3.77-4.96,5.57-.25.32-.6.65-1.05.99-.46.35-.81.68-1.05.99-.37.47-.86.79-1.49.94-.62.15-1.28.35-1.96.57-1.03.85-2.04.77-3.03-.25l-.92-.52-.42.06c-.14.02-.2.1-.18.24-.58,1.08-.82,2.24-.73,3.52.09,1.27.21,2.4.33,3.38.23.68.82,1.39,1.77,2.13.65.63,1.38,1.04,2.19,1.21.81.19,1.56.23,2.27.14.58.07,1.36.04,2.35-.08,1.1-.28,2.32-.51,3.66-.69s2.67-.63,4-1.37c5.03-1.93,9.54-4.08,13.51-6.45,3.98-2.37,8.02-4.81,12.12-7.34,2.1-1.42,4.03-2.77,5.79-4.07,1.76-1.3,3.56-2.56,5.4-3.8,1.17-.86,1.89-1.42,2.14-1.67.25-.25,1.02-.95,2.3-2.12.61-.79.96-1.16,1.04-1.1s.65-.19,1.72-.76c.25-.32.35-.36.3-.15-.04.22.04.53.23.93.21.54.48,1.19.79,1.93.31.74.21,1.37-.3,1.86-.86,1.11-1.21,1.69-1.06,1.74.15.06-.21.56-1.09,1.53-1.9,1.82-3.84,3.42-5.8,4.81-1.96,1.4-3.98,2.94-6.04,4.64-1.46.9-2.81,1.78-4.05,2.66-1.25.88-2.46,1.68-3.65,2.4-2.67,1.49-5.36,3.01-8.08,4.57-2.73,1.57-5.59,2.9-8.59,4l-5.89,2.47c-1.49.62-2.65,1.02-3.49,1.2-.83.18-2.09.38-3.78.59Zm-5.64-22.19c2.21-1.7,4.24-3.68,6.09-5.92,1.85-2.24,3.6-4.67,5.27-7.32-.14.02-.28.07-.41.16-.13.09-.26.14-.4.16-2.52,1.47-4.63,3.09-6.33,4.89-1.69,1.79-2.95,3.95-3.77,6.48-.14.02-.29.54-.44,1.55Z"/><path class="cls-1" d="m673.31,292.43c-.16-.12-.34-.13-.54-.04-.2.1-.52.1-.96.01-.88-.17-2.06.06-3.56.68-.67.37-1.36.81-2.07,1.33-.72.52-1.4,1.04-2.05,1.56-1.17.86-2.22,1.89-3.14,3.07-.92,1.19-1.87,2.35-2.87,3.48-.9.83-1.77,1.83-2.61,3.01-.85,1.18-1.92,2.85-3.21,5.02-.31.9-.72,1.84-1.24,2.84s-1,1.95-1.45,2.86c-.19.74-.48,1.28-.86,1.61-.66,1.51-1.11,3.03-1.34,4.56-.23,1.53-.53,3.1-.89,4.72.04.28.04.57,0,.86-.04.29-.03.57,0,.86-.21.6-.61,1.08-1.21,1.44-.6.36-1.13.43-1.58.2-1.6-.22-3.03-.75-4.27-1.58-.92-.46-1.22-1.2-.93-2.24.19-.74.38-1.51.56-2.32.18-.8.44-1.59.77-2.35.64-1.65,1.02-3.7,1.13-6.14.38-2.62.64-5.25.8-7.92.16-2.66.42-5.3.8-7.92.19-.74.24-1.45.15-2.16-.09-.7-.11-1.41-.06-2.14.29-2.18.29-4.39,0-6.63-.11-.84.24-1.46,1.05-1.85.81-.39,1.52-.41,2.13-.07,1.04.29,2.09.73,3.17,1.3,1.21.56,1.73,1.28,1.56,2.16.06,1.57.07,3.06.04,4.49-.03,1.43-.09,2.94-.17,4.52l.06.43.21-.03c.75-.81,1.32-1.38,1.71-1.71.39-.34.81-.89,1.28-1.67,1.08-1.56,2.56-2.86,4.42-3.89,1.87-1.02,3.68-1.93,5.43-2.73,1.45-.9,3.26-1.28,5.42-1.13.88.17,1.72.35,2.53.53.81.18,1.61.58,2.4,1.19.16.12.25.26.26.4.02.14.11.34.29.6.16.13.14.27-.05.43-.19.17-.43.27-.71.31l-.42.05Z"/><path class="cls-1" d="m654.18,411.6c-.51-1.79-.7-3.52-.56-5.17.14-1.67.4-3.3.76-4.92.4-2.48.95-4.87,1.65-7.17.7-2.31,1.47-4.66,2.3-7.04,1.12-2.43,2.25-4.75,3.39-6.97,1.14-2.22,2.35-4.48,3.62-6.78.58-1.08,1.16-2.08,1.75-3.01.6-.93,1.26-1.87,1.99-2.82.23-.46.54-.86.92-1.19.39-.34.69-.73.92-1.19l1.38-2.53c.27-.18.42-.38.46-.59.04-.22.19-.42.46-.6,1.02-.99,1.88-2.06,2.58-3.23.71-1.15,1.49-2.29,2.35-3.41.88-.97,1.71-2,2.49-3.1s1.54-2.2,2.25-3.29l1.7-1.72c.61-.79,1.3-1.56,2.06-2.29.76-.75,1.43-1.58,2.03-2.51.1-.3.42-.63.95-.98,1.01-.99,1.77-1.8,2.25-2.43.56-1.21,1.49-2.26,2.81-3.15,1.43-1.04,2.56-2.25,3.38-3.64l.79-.53,10.11-9.65c1.05-.71,2.02-1.47,2.92-2.31.89-.82,1.85-1.67,2.89-2.51.49-.63.7-1.24.63-1.79-.09-.7-.07-1.63.07-2.79.05-.72.17-1.73.36-3.04.18-1.32.37-2.66.55-4.04.18-1.38.33-2.68.46-3.91.13-1.23.14-2.19.06-2.9.07-.58-.03-1.28-.27-2.11-.02-.14-.1-.45-.23-.93-.13-.48-.19-.65-.17-.51-1.32.89-2.59,2.12-3.81,3.7-.47.78-.96,1.41-1.47,1.9-.51.49-1.08,1.07-1.71,1.72l-3.17,3.62c-.39.33-.7.73-.92,1.19-.23.46-.53.93-.89,1.4l-3.88,4.78c-1.15,1.01-2.2,2.03-3.14,3.08-.94,1.05-1.92,1.99-2.95,2.84-1.04.85-2.07,1.66-3.11,2.43-1.04.78-2.09,1.53-3.14,2.23-.65.51-1.39.82-2.24.93-.84.11-1.67.36-2.47.74-.6-.21-1.18-.31-1.75-.31-.57,0-1.09-.18-1.57-.54l-2.43-2.26c-1.79-1.77-2.47-3.68-2.02-5.74.19-1.88.65-3.86,1.37-5.96l3.09-5.97c.35-.61.8-1.24,1.36-1.89.56-.64.94-1.26,1.15-1.86.08-.44.33-.75.73-.95,1.35-1.74,2.69-3.49,4.04-5.23,1.35-1.75,2.85-3.37,4.51-4.87l6.2-5.08,5.21-2.81c1.75-.79,3.69-.69,5.82.32.75.33,1.34.72,1.75,1.17.42.44.87.93,1.36,1.43.32.25.52.47.62.67.1.2.24.43.41.7.32.25.53.54.65.88.11.35.33.64.65.88.31.25.63.46.94.63.3.18.61.32.91.42.75.33,1.58.65,2.48.96.9.32,1.66.72,2.29,1.21,1.13.99,1.84,2.12,2.14,3.36.2,1.55.27,2.68.22,3.4-.07.58-.18,1.41-.32,2.5-.15,1.08-.28,2.28-.39,3.59-.12,1.3-.21,2.52-.28,3.67-.06,1.15-.06,2.01.01,2.57l.05.42.79-.53c1.31-.88,2.56-1.76,3.73-2.62s2.36-1.66,3.55-2.39c.77-.67,1.62-1.24,2.56-1.72.93-.47,1.8-.98,2.59-1.51,1.72-1.08,3.02-1.81,3.89-2.21.88-.4,2.25-1.07,4.13-2.03.4-.19.67-.31.81-.32.14-.01.48-.13,1.03-.34,1.09-.42,2.09-.95,3.01-1.56.92-.62,1.94-1,3.06-1.15.58.07,1,.3,1.27.7.27.39.7.7,1.29.9v1.71c.06.42.02.65-.12.67-.25.32-.77.67-1.57,1.06-1.37.46-3.25,1.38-5.64,2.75-2.39,1.38-4.18,2.43-5.38,3.16-.67.37-1.14.61-1.41.71-.27.11-.47.24-.59.4-.13.16-.28.29-.49.38-.2.1-.64.33-1.3.71l-1.76,1.29c-2.36,1.59-4.73,3.21-7.08,4.88-2.35,1.66-4.63,3.42-6.82,5.27-.51.49-.83,1.32-.96,2.48-.14,1.17-.25,2.18-.36,3.05s-.15,1.88-.15,3.02c-.05.72-.1,1.45-.15,2.16-.05.72-.09,1.51-.12,2.37l-1.02,8.7-.35,3.91c-.05.72-.14,1.38-.28,1.96-.14.59-.24,1.25-.28,1.96-.17,2.02-.56,4-1.17,5.93-.31.9-.6,1.76-.85,2.57-.25.82-.31,1.79-.16,2.91.04.28-.05.72-.26,1.32-.83,2.39-1.49,4.75-1.97,7.1-.49,2.35-1.15,4.65-2,6.9l-.34.68c-.24,1.46-.57,2.82-.97,4.09-.41,1.26-.96,2.51-1.66,3.75-.49,1.78-1.09,3.46-1.81,5.05-.73,1.59-1.48,3.22-2.26,4.9-.56,1.21-1.08,2.38-1.58,3.52-.5,1.13-1.17,2.25-2.03,3.36-.28.04-.4.19-.37.48-1.24,2.58-2.76,4.92-4.56,7.01-1.8,2.09-3.71,4.18-5.72,6.3-.97,1.27-2.04,2.38-3.21,3.31-1.16.93-2.47,1.85-3.93,2.75l-3.97,2.44c-.65.51-1.4,1-2.27,1.47-.87.47-1.79.76-2.78.89l-.21.03c-1.07.57-2.17.89-3.3.96-1.13.07-2.28.04-3.44-.1-3.62-.39-6.97-2.03-10.06-4.91l-1.06-1.58c-.74-1.33-1.34-2.64-1.79-3.94-.45-1.3-.63-2.67-.53-4.11Zm15.02,8.56c.7-.09,1.85-.35,3.43-.77,1.59-.42,2.72-.81,3.38-1.18l.97-.76c1.03-.85,2.11-1.67,3.22-2.45,1.11-.79,2.11-1.59,3.01-2.42.54-.21,1.26-.73,2.15-1.56.13-.16.28-.29.49-.38.2-.1.43-.3.67-.62l4.09-4.81c.75-.82,1.36-1.61,1.84-2.38.47-.78,1-1.63,1.6-2.56.57-1.07,1.12-2.07,1.65-3,.52-.92,1.09-1.78,1.7-2.57,1.06-1.71,2.02-3.68,2.88-5.94.39-1.33,1.01-2.63,1.85-3.88.29-1.03.58-2.14.86-3.32.28-1.18.69-2.37,1.25-3.59.24-.32.36-.55.34-.69s.03-.36.13-.66c.1-.3.16-.66.18-1.09.01-.43.13-.87.36-1.33.54-1.35.99-2.81,1.37-4.35.37-1.54.81-3.14,1.31-4.77.17-.88.33-1.79.5-2.74.16-.95.41-1.8.74-2.56s.52-1.53.56-2.32c.04-.79.22-1.64.53-2.54l.43-3.27.38-3.69c.4-1.33.65-2.68.76-4.06s.29-2.71.55-4.03c.17-.88.22-1.6.15-2.16l.22-4.96.49-4.56-.11-.84-.47-.36c-.13.16-.26.25-.39.27-.14.01-.2.1-.18.23l-4.41,4c-1.66,1.5-3.35,3.07-5.07,4.72-1.71,1.65-3.38,3.43-4.98,5.35l-3.57,3.89c-1.38,1.46-2.7,2.88-3.95,4.25-1.25,1.38-2.49,2.86-3.71,4.44l-3.46,4.73-3.73,4.33-3.25,4.7c-.92,1.69-1.93,3.31-3.01,4.88-1.08,1.57-2.09,3.2-3.01,4.89-.78,1.67-1.6,3.35-2.46,5.03-.85,1.68-1.6,3.34-2.25,5-1.17,2-2.05,4.01-2.65,6.02-.6,2-1.25,4.12-1.97,6.35l-.26,1.32c-.15,1.02-.24,2.02-.25,3.03,0,1-.03,1.93-.07,2.79-.21,1.74-.03,3.64.52,5.71.18.27.31.75.4,1.45-.33.75-.1,1.44.69,2.05.51.65,1.09,1.25,1.73,1.82.65.56,1.36,1.14,2.16,1.75.3.1.63.2,1,.3.37.1.76.12,1.19.06l1.47-.19Zm36.4-129.75c-.86-.03-1.57.06-2.11.27-.55.21-1.15.5-1.82.88l-2.18,1.35c-.42.06-.62.15-.6.29-1.42,1.18-2.9,2.44-4.44,3.78s-2.77,2.85-3.7,4.55l-4.12,4.6c-.7,1.23-1.27,2.34-1.71,3.32-.45.99-.96,2.02-1.53,3.09l-.97,2.48c-.35.62-.32,1.4.09,2.35.04.28.19.4.48.37,1.26-.16,2.15-.49,2.66-.99,2.14-1.13,3.97-2.43,5.49-3.92.65-.51,1.22-1.05,1.72-1.61.5-.56,1.06-1.17,1.7-1.82.65-.51,1.09-.92,1.34-1.24.77-.67,1.33-1.28,1.69-1.82.36-.55.84-1.21,1.46-2.01.77-.67,1.5-1.37,2.19-2.1.69-.73,1.42-1.5,2.17-2.31.47-.78.92-1.47,1.33-2.1.42-.63.95-1.19,1.6-1.71.52-.35.96-.87,1.3-1.56.34-.68.69-1.27,1.06-1.74.42-.06.4-.27-.08-.64-.36-.52-.99-1.01-1.9-1.47l-.9-.31-.21.03Z"/><path class="cls-1" d="m778.51,281.24c.53,1.93.72,3.37.56,4.32-.17.95-.38,2.01-.66,3.19-.37,1.61-.6,2.83-.71,3.62-.11.8-.42,2.02-.92,3.65.02.14-.03.36-.13.66-.1.3-.07.51.08.63,3.03-.82,5.69-1.59,7.95-2.31,2.26-.72,4.34-1.45,6.25-2.2,1.9-.74,3.68-1.57,5.35-2.51,1.66-.93,3.48-2.02,5.46-3.28.91-.68,1.53-1.16,1.85-1.41.32-.26.6-.54.85-.86.25-.32.58-.75,1.01-1.31.43-.55,1.27-1.48,2.53-2.79.14-.02.24-.1.29-.25.05-.15.15-.24.29-.25.25-.31.75-.59,1.5-.83.75-.24,1.36-.25,1.82-.02.18.26.19.4.06.42-.14.02-.06.08.24.19.02.14.27.18.77.11.49-.06.67-.01.55.15-.15,2.16-1.09,3.71-2.83,4.64-.75.81-1.3,1.31-1.63,1.49-.33.19-.96.63-1.86,1.31-1.66,1.5-2.85,2.54-3.56,3.13-.71.59-1.29,1.06-1.74,1.41-.46.34-1.02.7-1.68,1.07-.67.37-1.8,1.02-3.39,1.94-1.98,1.25-4.87,2.63-8.68,4.12s-7.33,2.44-10.55,2.86c-.28.04-.6.08-.95.12-.35.05-.66.16-.92.33-.54.21-.83.46-.86.75-.04.29-.09.72-.15,1.3-.56,1.22-1.19,2.15-1.89,2.81-.7.67-1.33,1.6-1.88,2.82l-1.45,2.11c-.96,1.41-2.17,2.57-3.62,3.47-1.46.9-2.96,1.45-4.5,1.65-.69.23-1.6.32-2.75.25-1.15-.07-1.89-.22-2.2-.47-1.65-.64-3-1.68-4.04-3.12-1.04-1.43-1.66-2.93-1.86-4.47-.96-4.16-.82-8.04.43-11.62.14-1.15.32-2.21.55-3.17.24-.96.49-2.03.77-3.2.21-.6.32-1.07.35-1.44.02-.36.16-.7.4-1.01.71-1.09,1.2-2.36,1.43-3.83.75-1.95,1.54-3.3,2.37-4.05s1.85-1.99,3.06-3.71l1.92-1.75c1.82-1.38,3.42-2.22,4.81-2.55,1.1-.28,2.15-.49,3.13-.61.98-.13,1.7-.15,2.13-.06.72.05,1.46.24,2.22.57.75.33,1.32.83,1.69,1.5.79.61,1.35,1.33,1.67,2.14.32.82.6,1.57.83,2.25.21.54.3,1.25.27,2.11Zm-21.41,29.95c.14,3.27,1.79,3.34,4.96.22.98-1.27,1.9-2.39,2.78-3.36.87-.97,1.54-2.41,2.01-4.32.24-.32.39-.59.43-.81.04-.22.02-.39-.07-.53-.09-.13-.41-.09-.95.12-.74-.19-2-.56-3.79-1.11-1.78-.56-3.18-1.41-4.18-2.57-.18-.26-.37-.13-.59.4-.22.53-.37,1.01-.46,1.45-.64,1.65-.89,3.33-.75,5.02.14,1.69.32,3.31.52,4.86l.08.63Zm15.14-30.43c.28-1.18-.32-1.89-1.77-2.13-1.46-.24-2.43-.04-2.92.59-.51.49-1.1.86-1.79,1.08-1.52,1.48-2.71,3.06-3.56,4.75-.85,1.68-1.53,3.34-2.04,4.97-.56,1.22-.74,2.53-.56,3.93-.12,1.3.64,2.2,2.27,2.7.02.14.22.29.6.46.38.17.65.38.83.64.46.23,1.38.5,2.78.82,1.4.32,2.22.32,2.46,0,.94-1.54,1.68-3.57,2.22-6.06.54-2.49,1.11-4.64,1.74-6.43.35-1.76.26-3.53-.26-5.32Z"/><path class="cls-1" d="m807.13,318.87c-.39-.81-.4-1.45-.03-1.92.19-.74.24-1.49.14-2.27-.1-.77-.2-1.58-.31-2.42-.26-.96-.29-2-.08-3.1.22-1.1.32-2.21.32-3.36-.13-.98-.1-1.92.07-2.79.18-.88.33-1.9.47-3.05v-4.93c.39-1.47.6-2.89.64-4.25.04-1.36.24-2.85.6-4.47l-.06-.42c.19-.74.56-2.57,1.11-5.5.55-2.92,1.15-6.04,1.8-9.33.64-3.3,1.26-6.27,1.85-8.91.59-2.65.94-4.05,1.06-4.21.36-1.61.63-3.11.82-4.5.17-1.38.52-2.88,1.02-4.52.05-.72.23-1.53.54-2.42.31-.9.55-1.78.73-2.67.64-1.65,1.08-3.21,1.32-4.67.24-1.46.62-2.93,1.14-4.43.26-.17.39-.33.37-.48.53-2.49,1.04-4.91,1.53-7.26.48-2.34,1.14-4.72,1.97-7.11.59-2.07,1.15-4.11,1.68-6.1.53-2,.93-4.15,1.2-6.47l.18-1.95c-.06-.42-.04-.81.06-1.19.09-.36.03-.82-.18-1.37-.09-.7.54-1.36,1.89-1.95,1.1-.29,2.18-.28,3.21.01,1.04.3,2,.6,2.9.91.32.25.57.54.75.87.18.33.17.73-.06,1.19-.48,2.92-1.08,5.74-1.8,8.47-.72,2.74-1.45,5.65-2.2,8.74l-3.35,12.21c-.1.31-.14.56-.11.77.03.21-.08.48-.33.79-.38,1.48-.71,2.84-.97,4.09-.27,1.25-.67,2.55-1.21,3.9-.73,2.1-1.25,4.2-1.54,6.3-.3,2.11-.88,4.22-1.75,6.33-.16,1.02-.39,2.01-.69,2.98-.31.97-.53,2.03-.66,3.19-.19.74-.49,2.02-.89,3.86-.4,1.84-.82,3.93-1.23,6.26-.41,2.34-.82,4.68-1.24,7.02-.42,2.34-.73,4.31-.96,5.9-.15,1.02-.33,2.11-.54,3.28-.21,1.17-.32,2.26-.33,3.26-.12,1.3-.21,2.52-.28,3.67s-.31,2.33-.72,3.52c-.26,2.46-.47,4.66-.65,6.62s-.09,3.76.27,5.43c.17,1.26.18,2.54.07,3.84-.12,1.3-.02,2.64.3,4.03.19.4.24.76.14,1.06-.11.3-.2.67-.28,1.11-.14,1.16-.01,2.39.37,3.7.38,1.31.86,2.57,1.45,3.78l.47.36c.04.28.14.48.29.6.16.13.3.11.42-.06.64-.51,1.24-.58,1.79-.23.55.36.82.86.83,1.5.01.64-.26,1.29-.82,1.93-.56.64-1.61,1.07-3.16,1.27-1.69.22-3.24-.23-4.67-1.32-1.07-.58-1.81-1.31-2.21-2.18-.4-.88-.81-1.85-1.24-2.94.1-1.44-.04-2.82-.43-4.12-.38-1.31-.65-2.59-.82-3.86Z"/><path class="cls-1" d="m887.2,293.79c-1.26.16-2.42.09-3.45-.2-1.2-.41-2.41-.94-3.63-1.57-1.22-.63-2.26-1.46-3.1-2.49-2.13-2.15-3.82-4.72-5.06-7.7-.06-.42-.29-.61-.71-.55l-3.12,4.04c-1.89,1.96-3.75,3.91-5.56,5.86-1.82,1.95-3.69,3.76-5.62,5.43-1.3,1.02-2.56,1.98-3.81,2.85-1.25.87-2.63,1.55-4.13,2.03-1.47.76-3.19,1.27-5.16,1.52-2.49.61-4.48-.42-5.96-3.09l-2.09-2.94c-1.06-1.57-1.36-3.39-.92-5.45.14-1.16.46-2.27.96-3.34.5-1.07.9-2.12,1.2-3.16l1.94-3.25c1.68-2.5,3.47-4.91,5.39-7.23,1.91-2.31,3.96-4.39,6.15-6.25l3.31-2.57c1.82-1.38,3.85-2.21,6.1-2.5,1.26-.17,2.22.07,2.87.7,2.04,1.45,3.5,3.33,4.37,5.64.04.28-.05.72-.26,1.32-.38.34-.67.38-.84.11l-1.64-1.07c-.79-.61-1.45-.67-1.95-.18-1.09.43-2.18.82-3.28,1.17-1.1.36-2.16.96-3.19,1.81-2.37,1.58-4.47,3.57-6.3,5.95-.53.36-.96.84-1.31,1.45-2.66,2.63-4.87,6.05-6.6,10.27-.96,1.41-1.53,3.13-1.69,5.14-.21.6-.03.86.53.79.44.09.87.11,1.29.05.42-.05.77-.1,1.05-.14.95-.4,1.94-.75,2.98-1.03,1.03-.27,1.93-.75,2.71-1.42,3.85-2.21,7.2-5.07,10.03-8.58l4.51-4.87c.38-.33.74-.63,1.06-.89.32-.26.61-.54.85-.86.96-1.41,1.9-2.74,2.81-4,.9-1.26,1.82-2.73,2.75-4.42.58-1.07,1.39-1.39,2.45-.96.6.21,1.27.45,2.02.71.74.26,1.29.65,1.65,1.18.21.54.38.99.49,1.33.11.34.14.81.07,1.38-.03.86-.02,1.79.04,2.78.06.99.15,1.98.28,2.96.31,2.39,1.08,4.5,2.32,6.34.32.25.65.39,1.01.41.36.03.7.16,1.01.4,2.13,1.01,4.24,1.35,6.34,1,2.1-.34,4.14-1.07,6.14-2.18,1.07-.57,2.02-1.01,2.83-1.33.82-.32,1.74-.9,2.77-1.75,1.64-1.64,3.06-2.89,4.23-3.75,1.17-.86,2.41-2.31,3.73-4.34.37-.47,1.02-1.45,1.98-2.93.95-1.47,1.53-2.52,1.74-3.11l.58-.5c-.02-.14.29-.25.92-.33.63-.08.96-.05.98.09l1,1.15c.55.93.4,2.27-.44,4.02-.85,1.75-1.51,3.02-1.97,3.79-2.41,4.59-5.67,8.37-9.78,11.33-4.12,2.96-8.14,4.76-12.05,5.41-.29.04-.91.19-1.87.45-.96.27-1.6.28-1.92.04Z"/></g></svg>